<svg id="Layer_1" data-name="Layer 1" xmlns="http://www.w3.org/2000/svg" viewBox="0 0 374.5 50"><defs><style>.cls-1{fill:#b4adac;}.cls-2{fill:none;stroke:#000;}.cls-2,.cls-3{stroke-miterlimit:10;}.cls-3{fill:#1d1d1b;stroke:#1d1d1b;stroke-width:2px;}.cls-4{fill:#fff;}.cls-5{font-size:18px;font-family:OpenSans-Regular, Open Sans;}</style></defs><title>top</title><rect class="cls-1" width="374.5" height="50"/><text x="-0.5" y="-0.5"/><circle class="cls-2" cx="105" cy="26.5" r="15.83"/><path class="cls-3" d="M105.42,39.68" transform="translate(-0.5 -0.5)"/><circle cx="105.57" cy="18.59" r="3.58"/><path d="M110.31,12c.23-.15,1.74,1.36,2.78,3.23a14.27,14.27,0,0,1,1.19,3.13c.66,2.44,1.43,5.28.64,8.68a14.22,14.22,0,0,1-1.34,3.48,21.93,21.93,0,0,1-4.47,5.8,22.75,22.75,0,0,1-4.41,3.82c-1.93,1.23-4.27,2.15-4.47,1.84,0-.09.08-.23.42-.74,0,0,.12-.18,1-1.79a10.81,10.81,0,0,0,1-4.37,13.19,13.19,0,0,0-.39-3.77,29.31,29.31,0,0,0-1.74-4.12c-1.28-2.84-1.37-3.06-1.49-3.37a33.7,33.7,0,0,1-1.24-4.32c-.32-1.32-1.14-4.72-.84-4.82s.53,1.14,1.73,3.08a17,17,0,0,0,2.09,2.83,9.69,9.69,0,0,0,2.63,2.18,6.27,6.27,0,0,0,3.32.95,5,5,0,0,0,2.93-.95,5.37,5.37,0,0,0,1.89-3.12,7.52,7.52,0,0,0,.15-2.93,16.14,16.14,0,0,0-.85-3C110.42,12.43,110.2,12.06,110.31,12Z" transform="translate(-0.5 -0.5)"/><circle class="cls-4" cx="106.39" cy="32.02" r="0.57"/><circle class="cls-4" cx="106.77" cy="30.22" r="0.57"/><circle class="cls-4" cx="106.96" cy="28.35" r="0.54"/><circle class="cls-4" cx="107.07" cy="26.7" r="0.46"/><circle class="cls-4" cx="106.96" cy="25.39" r="0.35"/><text class="cls-5" transform="translate(128.37 32.93)">GENOPTRÆNING</text></svg>